<svg xmlns="http://www.w3.org/2000/svg" xmlns:xlink="http://www.w3.org/1999/xlink" version="1.1" id="Ebene_1" x="0px" y="0px" viewBox="0 0 398.4 233" enable-background="new 0 0 398.4 233" xml:space="preserve"  width="100%" height="100%"><rect id="svgEditorBackground" x="0" y="0" width="398.3999938964844" height="233" style="fill: none; stroke: none;"/>
<g>
	<defs>
		<rect id="SVGID_1_" x="0" y="0" width="398.4" height="233"/>
	</defs>
	<clipPath id="SVGID_2_">
		<use xlink:href="#SVGID_1_" overflow="visible"/>
	</clipPath>
	<path clip-path="url(#SVGID_2_)" fill="#004B6E" d="M380.1,184c-4.4,0-7.4-3.7-7.4-9.4c0-5.9,3.4-9.2,7.5-9.2c5,0,7.4,4.6,7.4,9.2   C387.6,181.2,384,184,380.1,184 M365.2,174.7c0,9.2,5.2,15.6,13.3,15.6c6.8,0,9.3-4.8,9.3-4.8h0.1v1.1c0,1.8,1,3,3.7,3h6.8v-6.3   h-2.3c-0.8,0-1.3-0.5-1.3-1.3v-30c0-2.7-1.2-4-4-4h-7.1v6.3h2.3c0.8,0,1.3,0.4,1.3,1.3v5.3c0,1,0.1,1.8,0.1,1.8h-0.1   c0,0-2.1-3.6-8.6-3.6C370.9,159,365.2,165.2,365.2,174.7 M345.2,189.6h7.4v-11.8c0-1.8,0.2-3.4,0.6-4.9c1.3-4.4,5-6.3,8.1-6.3   c1.1,0,1.8,0.1,1.8,0.1v-7.3c0,0-0.7-0.1-1.3-0.1c-4.6,0-8.1,3.4-9.5,7.7h-0.1c0,0,0.1-0.8,0.1-1.9v-1.8c0-2.5-1.3-3.6-4-3.6h-6.8   v6.3h2.3c0.8,0,1.3,0.4,1.3,1.3V189.6z M317.1,180.6c0-4.1,6.1-4.7,10-4.7h1.3v0.7c0,3.6-2.8,7.8-6.8,7.8   C318.5,184.5,317.1,182.6,317.1,180.6 M309.6,181c0,6,4.8,9.3,10.2,9.3c6.7,0,9-5.3,9-5.3h0.1c0,0-0.1,0.5-0.1,1.3   c0,1.8,1.1,3.3,3.8,3.3h6.7v-6.3h-2.3c-0.8,0-1.3-0.5-1.3-1.3v-11.1c0-6.7-2.9-11.9-12.9-11.9c-3.1,0-10.9,0.6-10.9,6.1v3.2h6.9   v-1.6c0-1.6,2.6-2,4-2c3.8,0,5.5,1.6,5.5,5.8v0.2h-0.9C322.4,170.9,309.6,171.6,309.6,181 M275.1,178.9c0,8.1,3.9,11.3,10.3,11.3   c5.1,0,8.9-3.1,10.3-6.2h0.1c0,0-0.1,0.6-0.1,1.3v0.8c0,2.1,1.3,3.3,3.9,3.3h6.8v-6.3h-2.3c-0.8,0-1.3-0.5-1.3-1.3v-22.3h-7.4v13.7   c0,5.3-3,10.1-8.4,10.1c-3.7,0-4.6-2.5-4.6-6.1v-13.7c0-2.7-1.2-3.9-3.9-3.9h-7.1v6.3h2.3c0.8,0,1.3,0.4,1.3,1.3V178.9z    M228.3,168.6c0,13.4,9.3,21.7,20.2,21.7c7.8,0,12.2-4.4,12.2-4.4h0.1c0,0-0.1,0.9-0.1,1.8v2h6.5v-17.7c0-2.7-1.2-3.9-4-3.9h-6.7   v6.5h2.5c0.8,0,1.3,0.4,1.3,1.3v3.1c0,0-3.9,4.3-10.5,4.3c-7.4,0-13.6-5.6-13.6-14.6c0-8.4,6.1-14.1,13.3-14.1   c6.3,0,10.6,3.7,10.6,3.7l4.3-5.5c0,0-5-5.3-15.1-5.3C237.4,147.4,228.3,156.7,228.3,168.6"/>
	<path clip-path="url(#SVGID_2_)" fill="#6C7E8F" d="M146.89999389648438,189.60000610351562h4v-14.100006103515625c0,-1.399993896484375,0.100006103515625,-2.6999969482421875,0.5,-3.899993896484375c1.3000030517578125,-4.899993896484375,5.6999969482421875,-8.399993896484375,10.600006103515625,-8.399993896484375c5.6999969482421875,0,6.399993896484375,4.100006103515625,6.399993896484375,8.699996948242188v14.099990844726562c0,2.5,1.100006103515625,3.600006103515625,3.600006103515625,3.600006103515625h4.100006103515625v-3.399993896484375h-2.5c-0.8000030517578125,0,-1.3000030517578125,-0.399993896484375,-1.3000030517578125,-1.3000030517578125v-14c0,-7.1999969482421875,-2.600006103515625,-11.399993896484375,-9.899993896484375,-11.399993896484375c-6.600006103515625,0,-10.5,4.5,-11.600006103515625,7.3000030517578125h-0.100006103515625c0,0,0.100006103515625,-1.100006103515625,0.100006103515625,-2.399993896484375v-12.399993896484375c0,-2.399993896484375,-1.100006103515625,-3.399993896484375,-3.600006103515625,-3.399993896484375h-4.100006103515625v3.399993896484375h2.5c0.8000030517578125,0,1.3000030517578125,0.5,1.3000030517578125,1.3000030517578125v36.29997253417969ZM113.69999694824219,174.89999389648438c0,9.100006103515625,6.6999969482421875,15.399993896484375,15.399993896484375,15.399993896484375c7.5,0,11.5,-4.8000030517578125,11.5,-4.8000030517578125l-1.899993896484375,-3c0,0,-3.399993896484375,4.100006103515625,-9.5,4.100006103515625c-6.1999969482421875,0,-11.5,-4.5,-11.5,-11.699996948242188c0,-7.100006103515625,5.099998474121094,-11.899993896484375,11.399993896484375,-11.899993896484375c2.5,0,6.6999969482421875,1.1999969482421875,6.6999969482421875,3.600006103515625v1.6999969482421875h3.6999969482421875v-2.600006103515625c0,-4.8000030517578125,-7.100006103515625,-6.3000030517578125,-10.5,-6.3000030517578125c-8.599983215332031,0.100006103515625,-15.29998779296875,6.5,-15.29998779296875,15.5M96.4000015258789,189.60000610351562h4v-12.399993896484375c0,-1.899993896484375,0.1999969482421875,-3.899993896484375,0.8000030517578125,-5.6999969482421875c1.3000030517578125,-4.3000030517578125,4.400001525878906,-7.600006103515625,8.5,-7.600006103515625c0.8000030517578125,0,1.5,0.100006103515625,1.5,0.100006103515625v-4.0000152587890625c0,0,-0.8000030517578125,-0.1999969482421875,-1.5999984741210938,-0.1999969482421875c-4.599998474121094,0,-7.900001525878906,3.399993896484375,-9.300003051757812,7.8000030517578125h-0.09999847412109375c0,0,0.09999847412109375,-1,0.09999847412109375,-2.1999969482421875v-2c0,-2.3000030517578125,-1.0999984741210938,-3.3000030517578125,-3.5999984741210938,-3.3000030517578125h-4.099998474121094v3.399993896484375h2.5c0.8000030517578125,0,1.3000030517578125,0.5,1.3000030517578125,1.3000030517578125v24.800003051757812ZM66.80000305175781,181.3000030517578c0,-6.600006103515625,9.199996948242188,-6.6999969482421875,13.900001525878906,-6.6999969482421875h1.6999969482421875v1.3000030517578125c0,5.100006103515625,-3.4000015258789062,10.899993896484375,-9,10.899993896484375c-4.400001525878906,0.0999908447265625,-6.599998474121094,-2.6999969482421875,-6.599998474121094,-5.5M62.79999923706055,181.5c0,5.8000030517578125,5.100002288818359,8.699996948242188,10.000003814697266,8.699996948242188c7.400001525878906,0,9.800003051757812,-6.399993896484375,9.800003051757812,-6.399993896484375h0.09999847412109375c0,0,-0.09999847412109375,0.899993896484375,-0.09999847412109375,2.1999969482421875c0,2.399993896484375,1,3.5,3.5,3.5h4v-3.399993896484375h-2.5c-0.8000030517578125,0,-1.3000030517578125,-0.399993896484375,-1.3000030517578125,-1.3000030517578125v-14.100006103515625c0,-6.3000030517578125,-2.1999969482421875,-11.300003051757812,-11.5,-11.300003051757812c-2.5999984741210938,0,-9.599998474121094,0.899993896484375,-9.599998474121094,5v2.8000030517578125h3.8000030517578125v-1.899993896484375c0,-2.1999969482421875,4.3000030517578125,-2.600006103515625,5.6999969482421875,-2.600006103515625c5.400001525878906,0,7.599998474121094,2.1999969482421875,7.599998474121094,8.300003051757812v0.399993896484375h-1.5999984741210938c-5.000007629394531,0,-17.900005340576172,0.4000091552734375,-17.900005340576172,10.100006103515625M35.099998474121094,171.8000030517578c1,-5.899993896484375,5.299999237060547,-9.100006103515625,10.099998474121094,-9.100006103515625c4.299999237060547,0,8.099998474121094,3,8.299999237060547,9.100006103515625h-18.39999771118164ZM30.700000762939453,174.89999389648438c0,9.100006103515625,6.700000762939453,15.399993896484375,15.39999771118164,15.399993896484375c6.700000762939453,0,10.900001525878906,-4.1999969482421875,10.900001525878906,-4.1999969482421875l-1.9000015258789062,-3c0,0,-3.4000015258789062,3.600006103515625,-8.799999237060547,3.600006103515625c-6.099998474121094,0,-11.299999237060547,-4.3000030517578125,-11.39999771118164,-11.699996948242188h22.599998474121094c0,0,0.09999847412109375,-1.3000030517578125,0.09999847412109375,-2c0,-7.3000030517578125,-4.200000762939453,-13.600006103515625,-12.299999237060547,-13.600006103515625c-8,0.100006103515625,-14.599998474121094,5.8000030517578125,-14.599998474121094,15.5M0,184.39999389648438c0,0,4.599999904632568,5.8000030517578125,13,5.8000030517578125c7.700000762939453,0,12.399999618530273,-5.1999969482421875,12.399999618530273,-11.300003051757812c0,-13.600006103515625,-20.299999237060547,-11.199996948242188,-20.299999237060547,-20.699996948242188c0,-3.5,3.1000003814697266,-6.600006103515625,8.399999618530273,-6.600006103515625c3.799999237060547,0,7.200000762939453,1.8000030517578125,7.200000762939453,4.3000030517578125v1.899993896484375h3.8999996185302734v-2.899993896484375c0,-5.399993896484375,-7.100000381469727,-7.100006103515625,-11.100000381469727,-7.100006103515625c-7.5,0.0000152587890625,-12.5,4.800018310546875,-12.5,10.500015258789062c0,12.699996948242188,20.299999237060547,10.699996948242188,20.299999237060547,20.899993896484375c0,4.399993896484375,-3.6000003814697266,7.3000030517578125,-8.100000381469727,7.3000030517578125c-6.5,0,-10.600000381469727,-5,-10.600000381469727,-5l-2.5999984741210938,2.899993896484375Z"/>
	<path clip-path="url(#SVGID_2_)" fill="#004B6E" d="M238,23c-28.8-36-104.9-35.9-117.5,45c0,0,13.4-2.3,21.1-16.3   c11.3-20.7,45.1-36.1,71.4-17.3c3.3-7.2,10.6-12.3,19-12.3C234.1,22.1,236.1,22.5,238,23"/>
	<path clip-path="url(#SVGID_2_)" fill="#6C7E8F" d="M211.8,37.3c-29-20.6-58.5,4.1-58.5,4.1c0,3.4-0.1,6.9-0.1,6.9   c4.8-3.6,19.3-9.8,36.2-5.5c-0.1-2,0-6.4,0-6.4s11.4,3.1,22.6,13c-0.6-2-1-4.2-1-6.4C211,41.1,211.3,39.2,211.8,37.3"/>
	<path clip-path="url(#SVGID_2_)" fill="#004B6E" d="M171.1,99.7c0,0,20.1-19.5,18.2-53.7c-18.6-5.7-52.9,3.4-50.7,35.3   c2.9,43.3-10.6,49-10.6,49c15.6,10.5,32.4-3.9,61.6,16.5C195.4,119.9,171.1,99.7,171.1,99.7"/>
	<path clip-path="url(#SVGID_2_)" fill="#004B6E" d="M193.6,41.1c1.8,38.1-19.2,58.3-19.2,58.3s28,23.4,16.1,55.2   c6.6,1.9,18.7,44.8,18.7,44.8c0.3-0.4-1.8-40.4,4.5-52.7c0,0-2.4-3.2-2.6-3.7c4.9-17.7,3.2-28.2,1.6-31.5c-1.8-3.6-2-3.5-4.8-3.7   c-2.8-0.2-5.2-0.5-7.4-1.1c-5.8-1.5-7-2.9-7.4-6.2c-0.5-3.7,2.7-5.4,8.9-4.5c7.1,1.1,14.8,4.3,17.5,8.4c0.2,0.9-2.9,19.8-2.6,20.3   c1.1,1.7,3,5.1,3,5.1C227.5,94.5,239.1,62.2,193.6,41.1"/>
	
<text dy="-0.5em" fill="black" id="e3_texte" style="font-family: Arial; font-size: 20px;"><textPath id="e2_textPath" xlink:href="#e1_path">T</textPath></text></g>
<text fill="black" x="20.0297" y="208.246" id="e4_texte" style="font-family: Arial; font-size: 20px;"></text></svg>